<svg width="60" height="60" viewBox="0 0 60 60" fill="none" xmlns="http://www.w3.org/2000/svg">
<g clip-path="url(#clip0_17952_177865)">
<circle cx="30" cy="30" r="30" fill="#C4C4C4"/>
<path d="M59.1024 37.2571C55.0952 53.3287 38.8155 63.1096 22.7402 59.1018C6.67158 55.0951 -3.11037 38.8162 0.898557 22.7459C4.90397 6.67257 21.1837 -3.10901 37.254 0.897702C53.3282 4.90442 63.1096 21.1851 59.1019 37.2574L59.1022 37.2571H59.1024Z" fill="#F7931A"/>
<path d="M43.2719 25.6746C43.869 21.6822 40.8292 19.5362 36.6724 18.1046L38.0209 12.6966L34.7285 11.8763L33.4158 17.1419C32.5503 16.926 31.6614 16.7227 30.778 16.521L32.1002 11.2207L28.8099 10.4004L27.4607 15.8066C26.7444 15.6436 26.0409 15.4824 25.3584 15.3126L25.3622 15.2956L20.8219 14.1619L19.9461 17.678C19.9461 17.678 22.3888 18.2379 22.3373 18.2723C23.6705 18.605 23.9116 19.4875 23.8716 20.187L22.3356 26.3479C22.4274 26.3712 22.5464 26.405 22.6778 26.4578C22.568 26.4305 22.4511 26.4007 22.3298 26.3717L20.1768 35.0023C20.0139 35.4073 19.6003 36.0151 18.6682 35.7843C18.7012 35.8321 16.2752 35.1872 16.2752 35.1872L14.6406 38.9555L18.9251 40.0235C19.7222 40.2233 20.5033 40.4324 21.2725 40.6291L19.91 46.0991L23.1986 46.9194L24.5478 41.5074C25.4462 41.7513 26.3181 41.9762 27.1716 42.1883L25.8269 47.5747L29.1195 48.395L30.4817 42.9352C36.0959 43.9976 40.3174 43.5693 42.0942 38.4918C43.526 34.4039 42.0229 32.046 39.0693 30.5083C41.2206 30.0122 42.841 28.5975 43.273 25.675L43.272 25.6743L43.2719 25.6746ZM35.7495 36.2216C34.7321 40.3096 27.8484 38.0997 25.6166 37.5456L27.4246 30.2988C29.6562 30.8558 36.8129 31.9583 35.7497 36.2216H35.7495ZM36.7678 25.6153C35.8396 29.3338 30.1103 27.4446 28.2517 26.9814L29.8909 20.409C31.7494 20.8722 37.7346 21.7368 36.768 25.6153H36.7678Z" fill="white"/>
</g>
<defs>
<clipPath id="clip0_17952_177865">
<rect width="60" height="60" fill="white"/>
</clipPath>
</defs>
</svg>
